<svg xmlns="http://www.w3.org/2000/svg" version="1.1" xmlns:xlink="http://www.w3.org/1999/xlink" xmlns:svgjs="http://svgjs.com/svgjs" width="1440" height="560" preserveAspectRatio="none" viewBox="0 0 1440 560"><g mask="url(&quot;#SvgjsMask1015&quot;)" fill="none"><rect width="1440" height="560" x="0" y="0" fill="rgba(254, 254, 254, 1)"></rect><path d="M1464 560L0 560 L0 292.72Q62.06 234.78, 120 296.84Q163.84 268.68, 192 312.53Q261.09 261.62, 312 330.71Q387.63 286.34, 432 361.97Q462.65 320.63, 504 351.28Q574.42 301.7, 624 372.12Q643.75 319.87, 696 339.61Q732.29 255.9, 816 292.19Q863.41 267.6, 888 315.01Q961.12 268.13, 1008 341.24Q1049.65 310.89, 1080 352.54Q1127.34 279.88, 1200 327.21Q1247.19 254.4, 1320 301.59Q1361.66 271.25, 1392 312.92Q1454.71 303.63, 1464 366.34z" fill="rgba(60, 186, 84, 1)"></path><path d="M1536 560L0 560 L0 377.26Q43.77 349.03, 72 392.8Q91.71 340.51, 144 360.22Q190.28 334.5, 216 380.78Q261.95 354.73, 288 400.68Q306.08 346.76, 360 364.84Q402.57 335.41, 432 377.98Q525 350.98, 552 443.97Q567.75 387.72, 624 403.47Q690.64 350.11, 744 416.75Q791.24 391.99, 816 439.23Q826.6 377.83, 888 388.42Q911.03 339.45, 960 362.47Q1040.67 323.14, 1080 403.81Q1159.17 362.99, 1200 442.16Q1208.4 378.57, 1272 386.97Q1298.69 341.66, 1344 368.35Q1372.25 324.6, 1416 352.85Q1512.94 329.8, 1536 426.74z" fill="rgba(219, 50, 54, 1)"></path><path d="M1512 560L0 560 L0 435.64Q78.33 393.97, 120 472.3Q172.18 404.48, 240 456.66Q300.82 445.48, 312 506.3Q341.63 463.93, 384 493.55Q429.96 419.51, 504 465.48Q557.5 398.99, 624 452.49Q673.97 430.46, 696 480.43Q745.65 458.09, 768 507.74Q819.86 439.6, 888 491.45Q890.41 421.86, 960 424.26Q1035.55 427.81, 1032 503.36Q1038.54 437.9, 1104 444.44Q1146.67 415.11, 1176 457.78Q1228.38 438.16, 1248 490.54Q1293.84 464.38, 1320 510.21Q1333.2 451.41, 1392 464.61Q1462.99 415.61, 1512 486.6z" fill="rgba(244, 194, 13, 1)"></path><path d="M1512 560L0 560 L0 502.8Q67.83 450.63, 120 518.47Q205.88 484.36, 240 570.24Q284.25 542.49, 312 586.73Q322.88 525.62, 384 536.5Q400.73 481.23, 456 497.96Q529.59 451.55, 576 525.14Q656.43 485.57, 696 566Q742.68 540.68, 768 587.37Q803.02 502.39, 888 537.41Q963.15 492.56, 1008 567.7Q1029.43 469.13, 1128 490.56Q1197.79 440.35, 1248 510.13Q1313.01 455.14, 1368 520.16Q1409.68 489.85, 1440 531.53Q1484.56 504.09, 1512 548.65z" fill="rgba(68, 133, 237, 1)"></path></g><defs><mask id="SvgjsMask1015"><rect width="1440" height="560" fill="#ffffff"></rect></mask></defs></svg>